<svg width="66.637mm" height="66.637mm" version="1.1" viewBox="0 0 66.63652 66.63652" xmlns="http://www.w3.org/2000/svg" xmlns:xlink="http://www.w3.org/1999/xlink">
<defs>
<linearGradient id="a" x1="31.329" x2="65.831" y1="95.721" y2="95.721" gradientUnits="userSpaceOnUse">
<stop stop-color="#008066" offset="0"/>
<stop stop-color="#274c44" offset="1"/>
</linearGradient>
</defs>
<g transform="translate(-14.733 -62.403)">
<circle cx="48.051" cy="95.721" r="33.318" fill="#9c009c"/>
<path transform="scale(.26458)" d="m252.99 279.73-133.56 163.96 48.615 43.24a125.93 125.93 0 0 0 13.561 0.77929 125.93 125.93 0 0 0 125.93 -125.93 125.93 125.93 0 0 0 -1.957 -21.957z" fill-opacity=".4902"/>
<g stroke="#000">
<rect x="32.978" y="74.013" width="33.959" height="43.343" stroke-width=".54215"/>
<rect x="31.6" y="74.05" width="33.959" height="43.343" fill="url(#a)" stroke-width=".54215"/>
<rect x="43.126" y="80.866" width="10.908" height="5.2871" fill="#fff" stroke-width=".10732"/>
</g>
<g fill="#737373" stroke="#000" stroke-width=".034691">
<rect x="29.887" y="79.44" width="4.2568" height="1.4157"/>
<rect x="29.73" y="85.996" width="4.2568" height="1.4157"/>
<rect x="29.73" y="92.524" width="4.2568" height="1.4157"/>
<rect x="29.73" y="99.098" width="4.2568" height="1.4157"/>
<rect x="29.73" y="105.65" width="4.2568" height="1.4157"/>
<rect x="29.73" y="112.21" width="4.2568" height="1.4157"/>
</g>
<path d="m43.479 83.503c0.01969-0.0079 0.04052-0.01333 0.05906-0.02363 0.1113-0.06183-0.03593-0.02606 0.16536-0.08268 0.08551-0.02405 0.17491-0.0331 0.25986-0.05906 0.19886-0.06076 0.39484-0.13068 0.59059-0.2008 0.06815-0.02442 0.13034-0.09926 0.2008-0.08268 0.04216 0.0099-0.0074 0.08725 0 0.12993 0.01543 0.08948 0.04794 0.31304 0.2008 0.31892 0.3448 0.01326 0.73512-0.18437 1.0276-0.31892 0.01519-7e-3 0.0205-0.02796 0.03543-0.03544 0.0079-0.0039-0.0056 0.01741-0.0118 0.02363-0.0028 0.0028-0.01574 0-0.0118 0h0.05906c0.0118 0 0.02368-0.0011 0.03544 0 0.24114 0.02193-0.05415 0.02268 0.43703 0.05906 0.09816 0.0073 0.19693 0.0035 0.2953 0 0.45278-0.01969 0.90557-0.03937 1.3584-0.05906 0.24805-0.0315 0.49439-0.0826 0.74414-0.09449 0.01966-0.0011-0.0019 0.03947 0 0.05906 0.0059 0.05928 0.01384 0.11841 0.02363 0.17718 6e-3 0.03581-0.0075 0.08763 0.02363 0.10631 0.0993 0.05958 0.21497 0.10309 0.33073 0.10631 0.45697 0.0127 0.91579-0.0088 1.3702-0.05906 0.36686-0.04057 0.72567-0.1358 1.0867-0.21261 0.0109-0.0024 0.02363-0.03476 0.02363-0.02363 0 0.02867-0.05056 0.09248-0.02363 0.08268 0.06301-0.02291 0.10197-0.08709 0.15355-0.12993 0.39166-0.32527 0.55457-0.51043 1.004-0.7087 0.03099-0.01368-0.05381 0.04922-0.05906 0.08268-0.02691 0.17154-0.06078 0.34794-0.03544 0.51972 8e-3 0.05417 0.09061 0.21261 0.18899 0.21261 0.0981 0 0.133-0.08054 0.2008-0.15355 6e-3 -0.0065 0.0056-0.01741 0.0118-0.02363 2.65e-4 -2.65e-4 0.03257 0 0.03544 0 0.02363 0 0.04771-0.0046 0.07087 0 0.04606 0.0092 0.0615 0.042 0.09449 0.07087 0.02429 0.02125 0.07414 0.04568 0.08268 0.08268 0.08948 0.38772-0.08455-0.15252 0.01183 0.2008 0.0046 0.01699 0.03419 0.03316 0.02363 0.04725-0.04339 0.05786-0.201 0.14417-0.21261 0.15355-0.04765 0.03849-0.08662 0.08662-0.12993 0.12993-0.0039 0.0039 0.0087-0.0072 0.0118-0.0118 0.0049-0.0073 0.0056-0.01741 0.0118-0.02363 0.01003-0.01003 0.02273-0.01728 0.03543-0.02363 0.0035-0.0019 9e-3 0.0028 0.01183 0 0.0062-0.0062 0.0079-0.01574 0.0118-0.02363 0.0315-0.01574 0.06463-0.02858 0.09449-0.04725 0.0033-0.0021 0.0036-0.01349 0-0.0118-0.06852 0.03225-0.13479 0.06918-0.2008 0.1063-0.22932 0.12899-0.1851 0.14864-0.5079 0.18899-0.10939 0.01368-0.22048 0-0.33073 0-0.0079 0-0.01804-0.0056-0.02363 0-0.0056 0.0056-0.0024 0.01609 0 0.02363 0.04119 0.13386 0.01892 0.10161 0.08268 0.16536" fill="none" stroke="#000" stroke-width="1.065"/>
</g>
</svg>
