<?xml version="1.0" standalone="no"?>
<!DOCTYPE svg PUBLIC "-//W3C//DTD SVG 20010904//EN"
 "http://www.w3.org/TR/2001/REC-SVG-20010904/DTD/svg10.dtd">
<svg version="1.0" xmlns="http://www.w3.org/2000/svg"
 width="700.000000pt" height="700.000000pt" viewBox="0 0 700.000000 700.000000"
 preserveAspectRatio="xMidYMid meet">
<metadata>
Created by potrace 1.11, written by Peter Selinger 2001-2013
</metadata>
<g transform="translate(0.000000,700.000000) scale(0.100000,-0.100000)"
fill="#000000" stroke="none">
<path d="M1275 6421 c-3 -2 -5 -167 -5 -366 l0 -361 -115 1 -116 1 3 -99 3
-99 114 -1 113 -2 0 -320 c0 -176 -1 -330 -1 -342 -1 -23 -3 -23 -128 -23
l-128 0 5 -97 5 -98 123 0 c78 1 122 -3 123 -10 0 -5 1 -158 1 -340 l1 -330
-124 0 -124 0 -5 -30 c-3 -16 -4 -61 -2 -100 l3 -71 120 1 c66 1 123 -3 126
-8 4 -7 6 -305 4 -602 l-1 -80 -124 2 -124 1 -4 -71 c-2 -40 -2 -84 0 -99 l3
-28 127 0 127 0 -3 -343 -2 -343 -123 1 -122 0 -5 -60 c-3 -33 -3 -77 -1 -98
l3 -38 127 3 126 3 1 88 c0 48 3 89 6 92 4 5 136 7 261 6 l47 -1 0 -93 0 -93
-151 1 c-82 0 -154 -2 -159 -5 -5 -3 -8 -153 -7 -348 l2 -342 -127 0 -128 0
-1 -25 c0 -14 0 -47 0 -75 0 -108 -15 -96 122 -95 66 0 123 -3 126 -8 3 -5 5
-118 6 -252 l0 -243 2381 2 2380 1 1 2913 c0 1603 -2 2917 -5 2921 -5 8 -4748
10 -4755 2z m337 -773 c2 -24 2 -66 0 -94 l-4 -50 -164 0 c-158 0 -164 1 -165
21 -4 68 -4 142 -1 153 3 9 46 12 167 12 l164 0 3 -42z m2678 -505 l0 -353
-732 0 -733 0 2 327 c1 181 2 340 3 354 l0 26 730 0 730 0 0 -354z m-2700
-430 l0 -93 -155 0 c-117 0 -155 3 -156 13 -3 28 -4 162 -2 167 1 3 72 6 157
6 l156 -1 0 -92z m0 -879 l0 -95 -157 3 -157 3 1 78 c1 42 2 83 2 91 1 10 33
13 156 13 l155 1 0 -94z m0 -879 c4 -76 3 -88 -12 -94 -22 -8 -280 -7 -293 1
-8 5 -12 144 -6 178 1 3 70 5 154 4 l152 -1 5 -88z m0 -1772 l0 -93 -157 0
-158 0 0 83 c1 45 4 87 7 92 4 6 70 10 157 10 l151 1 0 -93z"/>
</g>
</svg>
